<mxfile host="app.diagrams.net" modified="2023-09-07T09:28:26.407Z" agent="Mozilla/5.0 (Windows NT 10.0; Win64; x64) AppleWebKit/537.36 (KHTML, like Gecko) Chrome/116.0.0.0 Safari/537.36" etag="5ocIySZnVYSpac1UXe5K" version="21.7.2" type="device">
  <diagram name="Page-1" id="mC_LAviZnDtMSzJDf7YL">
    <mxGraphModel dx="880" dy="470" grid="1" gridSize="10" guides="1" tooltips="1" connect="1" arrows="1" fold="1" page="1" pageScale="1" pageWidth="850" pageHeight="1100" math="0" shadow="0">
      <root>
        <mxCell id="0" />
        <mxCell id="1" parent="0" />
        <mxCell id="Sauw9TE4eDmhD_2kOe0a-1" value="&lt;font style=&quot;font-size: 13px;&quot;&gt;&lt;b&gt;&lt;u&gt;Extraction&amp;nbsp; using string manipulation&lt;/u&gt;&lt;/b&gt;&lt;/font&gt;" style="text;html=1;align=center;verticalAlign=middle;resizable=0;points=[];autosize=1;strokeColor=none;fillColor=none;" vertex="1" parent="1">
          <mxGeometry x="25" y="60" width="250" height="30" as="geometry" />
        </mxCell>
        <mxCell id="Sauw9TE4eDmhD_2kOe0a-3" value="&lt;font style=&quot;font-size: 13px;&quot;&gt;&lt;b&gt;&lt;u&gt;Extraction&amp;nbsp; using string manipulation&lt;/u&gt;&lt;/b&gt;&lt;/font&gt;" style="text;html=1;align=center;verticalAlign=middle;resizable=0;points=[];autosize=1;strokeColor=none;fillColor=none;" vertex="1" parent="1">
          <mxGeometry x="25" y="60" width="250" height="30" as="geometry" />
        </mxCell>
        <mxCell id="Sauw9TE4eDmhD_2kOe0a-11" value="" style="edgeStyle=orthogonalEdgeStyle;rounded=0;orthogonalLoop=1;jettySize=auto;html=1;" edge="1" parent="1" source="Sauw9TE4eDmhD_2kOe0a-4" target="Sauw9TE4eDmhD_2kOe0a-5">
          <mxGeometry relative="1" as="geometry" />
        </mxCell>
        <mxCell id="Sauw9TE4eDmhD_2kOe0a-4" value="Start" style="ellipse;whiteSpace=wrap;html=1;fillColor=#dae8fc;strokeColor=#6c8ebf;" vertex="1" parent="1">
          <mxGeometry x="40" y="120" width="80" height="50" as="geometry" />
        </mxCell>
        <mxCell id="Sauw9TE4eDmhD_2kOe0a-12" value="" style="edgeStyle=orthogonalEdgeStyle;rounded=0;orthogonalLoop=1;jettySize=auto;html=1;" edge="1" parent="1" source="Sauw9TE4eDmhD_2kOe0a-5" target="Sauw9TE4eDmhD_2kOe0a-6">
          <mxGeometry relative="1" as="geometry" />
        </mxCell>
        <mxCell id="Sauw9TE4eDmhD_2kOe0a-5" value="prompt user to input a sentence with their email address" style="rounded=0;whiteSpace=wrap;html=1;" vertex="1" parent="1">
          <mxGeometry x="155" y="115" width="120" height="60" as="geometry" />
        </mxCell>
        <mxCell id="Sauw9TE4eDmhD_2kOe0a-13" value="" style="edgeStyle=orthogonalEdgeStyle;rounded=0;orthogonalLoop=1;jettySize=auto;html=1;" edge="1" parent="1" source="Sauw9TE4eDmhD_2kOe0a-6" target="Sauw9TE4eDmhD_2kOe0a-7">
          <mxGeometry relative="1" as="geometry" />
        </mxCell>
        <mxCell id="Sauw9TE4eDmhD_2kOe0a-6" value="in an assign activity, use string manipulation to extract an emai address from the user input" style="rounded=0;whiteSpace=wrap;html=1;" vertex="1" parent="1">
          <mxGeometry x="300" y="115" width="160" height="60" as="geometry" />
        </mxCell>
        <mxCell id="Sauw9TE4eDmhD_2kOe0a-14" value="" style="edgeStyle=orthogonalEdgeStyle;rounded=0;orthogonalLoop=1;jettySize=auto;html=1;" edge="1" parent="1" source="Sauw9TE4eDmhD_2kOe0a-7" target="Sauw9TE4eDmhD_2kOe0a-8">
          <mxGeometry relative="1" as="geometry" />
        </mxCell>
        <mxCell id="Sauw9TE4eDmhD_2kOe0a-7" value="use read text file activity to read the saved email templete" style="rounded=0;whiteSpace=wrap;html=1;" vertex="1" parent="1">
          <mxGeometry x="500" y="115" width="140" height="60" as="geometry" />
        </mxCell>
        <mxCell id="Sauw9TE4eDmhD_2kOe0a-8" value="Use get secure credentials activity to get email credentials" style="rounded=0;whiteSpace=wrap;html=1;" vertex="1" parent="1">
          <mxGeometry x="670" y="115" width="170" height="60" as="geometry" />
        </mxCell>
        <mxCell id="Sauw9TE4eDmhD_2kOe0a-16" value="" style="edgeStyle=orthogonalEdgeStyle;rounded=0;orthogonalLoop=1;jettySize=auto;html=1;" edge="1" parent="1" source="Sauw9TE4eDmhD_2kOe0a-9" target="Sauw9TE4eDmhD_2kOe0a-10">
          <mxGeometry relative="1" as="geometry" />
        </mxCell>
        <mxCell id="Sauw9TE4eDmhD_2kOe0a-9" value="use send SMTP mail activity to send the user an email acknowledging receipt of their information" style="rounded=0;whiteSpace=wrap;html=1;" vertex="1" parent="1">
          <mxGeometry x="660" y="250" width="170" height="60" as="geometry" />
        </mxCell>
        <mxCell id="Sauw9TE4eDmhD_2kOe0a-10" value="End" style="ellipse;whiteSpace=wrap;html=1;fillColor=#dae8fc;strokeColor=#6c8ebf;" vertex="1" parent="1">
          <mxGeometry x="520" y="250" width="80" height="60" as="geometry" />
        </mxCell>
        <mxCell id="Sauw9TE4eDmhD_2kOe0a-19" value="internal app" style="text;html=1;align=center;verticalAlign=middle;resizable=0;points=[];autosize=1;strokeColor=none;fillColor=none;" vertex="1" parent="1">
          <mxGeometry x="170" y="175" width="90" height="30" as="geometry" />
        </mxCell>
        <mxCell id="Sauw9TE4eDmhD_2kOe0a-20" value="internal app" style="text;html=1;align=center;verticalAlign=middle;resizable=0;points=[];autosize=1;strokeColor=none;fillColor=none;" vertex="1" parent="1">
          <mxGeometry x="330" y="175" width="90" height="30" as="geometry" />
        </mxCell>
        <mxCell id="Sauw9TE4eDmhD_2kOe0a-21" value="internal app and notepad" style="text;html=1;align=center;verticalAlign=middle;resizable=0;points=[];autosize=1;strokeColor=none;fillColor=none;" vertex="1" parent="1">
          <mxGeometry x="490" y="170" width="160" height="30" as="geometry" />
        </mxCell>
        <mxCell id="Sauw9TE4eDmhD_2kOe0a-22" value="internal app and windows&amp;nbsp;&lt;br&gt;credentials manager" style="text;html=1;align=center;verticalAlign=middle;resizable=0;points=[];autosize=1;strokeColor=none;fillColor=none;" vertex="1" parent="1">
          <mxGeometry x="670" y="170" width="160" height="40" as="geometry" />
        </mxCell>
        <mxCell id="Sauw9TE4eDmhD_2kOe0a-23" value="Internal app and&amp;nbsp; Gmail" style="text;html=1;align=center;verticalAlign=middle;resizable=0;points=[];autosize=1;strokeColor=none;fillColor=none;" vertex="1" parent="1">
          <mxGeometry x="675" y="310" width="150" height="30" as="geometry" />
        </mxCell>
        <mxCell id="Sauw9TE4eDmhD_2kOe0a-24" value="" style="endArrow=none;dashed=1;html=1;rounded=0;entryX=1;entryY=1;entryDx=0;entryDy=0;exitX=0;exitY=1;exitDx=0;exitDy=0;" edge="1" parent="1" source="Sauw9TE4eDmhD_2kOe0a-6" target="Sauw9TE4eDmhD_2kOe0a-6">
          <mxGeometry width="50" height="50" relative="1" as="geometry">
            <mxPoint x="400" y="270" as="sourcePoint" />
            <mxPoint x="450" y="220" as="targetPoint" />
            <Array as="points">
              <mxPoint x="300" y="200" />
              <mxPoint x="460" y="200" />
            </Array>
          </mxGeometry>
        </mxCell>
        <mxCell id="Sauw9TE4eDmhD_2kOe0a-25" value="" style="endArrow=none;dashed=1;html=1;rounded=0;entryX=0.938;entryY=0.333;entryDx=0;entryDy=0;entryPerimeter=0;" edge="1" parent="1" source="Sauw9TE4eDmhD_2kOe0a-21" target="Sauw9TE4eDmhD_2kOe0a-21">
          <mxGeometry width="50" height="50" relative="1" as="geometry">
            <mxPoint x="400" y="270" as="sourcePoint" />
            <mxPoint x="450" y="220" as="targetPoint" />
            <Array as="points">
              <mxPoint x="500" y="200" />
              <mxPoint x="640" y="200" />
            </Array>
          </mxGeometry>
        </mxCell>
        <mxCell id="Sauw9TE4eDmhD_2kOe0a-26" value="" style="endArrow=none;dashed=1;html=1;dashPattern=1 3;strokeWidth=2;rounded=0;entryX=1;entryY=1;entryDx=0;entryDy=0;exitX=0;exitY=1;exitDx=0;exitDy=0;" edge="1" parent="1" source="Sauw9TE4eDmhD_2kOe0a-5" target="Sauw9TE4eDmhD_2kOe0a-5">
          <mxGeometry width="50" height="50" relative="1" as="geometry">
            <mxPoint x="400" y="270" as="sourcePoint" />
            <mxPoint x="450" y="220" as="targetPoint" />
            <Array as="points">
              <mxPoint x="155" y="200" />
              <mxPoint x="275" y="200" />
            </Array>
          </mxGeometry>
        </mxCell>
        <mxCell id="Sauw9TE4eDmhD_2kOe0a-27" value="" style="endArrow=none;dashed=1;html=1;rounded=0;entryX=0.063;entryY=0.333;entryDx=0;entryDy=0;entryPerimeter=0;exitX=0.063;exitY=1;exitDx=0;exitDy=0;exitPerimeter=0;" edge="1" parent="1" source="Sauw9TE4eDmhD_2kOe0a-21" target="Sauw9TE4eDmhD_2kOe0a-21">
          <mxGeometry width="50" height="50" relative="1" as="geometry">
            <mxPoint x="400" y="270" as="sourcePoint" />
            <mxPoint x="450" y="220" as="targetPoint" />
          </mxGeometry>
        </mxCell>
        <mxCell id="Sauw9TE4eDmhD_2kOe0a-28" value="" style="endArrow=none;dashed=1;html=1;rounded=0;entryX=1;entryY=1;entryDx=0;entryDy=0;exitX=0;exitY=1;exitDx=0;exitDy=0;" edge="1" parent="1" source="Sauw9TE4eDmhD_2kOe0a-9" target="Sauw9TE4eDmhD_2kOe0a-9">
          <mxGeometry width="50" height="50" relative="1" as="geometry">
            <mxPoint x="400" y="270" as="sourcePoint" />
            <mxPoint x="450" y="220" as="targetPoint" />
            <Array as="points">
              <mxPoint x="660" y="340" />
              <mxPoint x="830" y="340" />
            </Array>
          </mxGeometry>
        </mxCell>
        <mxCell id="Sauw9TE4eDmhD_2kOe0a-29" value="" style="endArrow=none;dashed=1;html=1;rounded=0;entryX=1;entryY=1;entryDx=0;entryDy=0;exitX=0;exitY=0.125;exitDx=0;exitDy=0;exitPerimeter=0;" edge="1" parent="1" source="Sauw9TE4eDmhD_2kOe0a-22" target="Sauw9TE4eDmhD_2kOe0a-8">
          <mxGeometry width="50" height="50" relative="1" as="geometry">
            <mxPoint x="450" y="270" as="sourcePoint" />
            <mxPoint x="500" y="220" as="targetPoint" />
            <Array as="points">
              <mxPoint x="670" y="200" />
              <mxPoint x="840" y="200" />
            </Array>
          </mxGeometry>
        </mxCell>
        <mxCell id="Sauw9TE4eDmhD_2kOe0a-31" value="" style="endArrow=classic;html=1;rounded=0;entryX=0.5;entryY=0;entryDx=0;entryDy=0;" edge="1" parent="1" target="Sauw9TE4eDmhD_2kOe0a-9">
          <mxGeometry width="50" height="50" relative="1" as="geometry">
            <mxPoint x="745" y="200" as="sourcePoint" />
            <mxPoint x="500" y="220" as="targetPoint" />
          </mxGeometry>
        </mxCell>
        <mxCell id="Sauw9TE4eDmhD_2kOe0a-33" value="Start" style="ellipse;whiteSpace=wrap;html=1;fillColor=#dae8fc;strokeColor=#6c8ebf;" vertex="1" parent="1">
          <mxGeometry x="40" y="422.5" width="80" height="50" as="geometry" />
        </mxCell>
        <mxCell id="Sauw9TE4eDmhD_2kOe0a-34" value="prompt user to input a sentence with their email address" style="rounded=0;whiteSpace=wrap;html=1;" vertex="1" parent="1">
          <mxGeometry x="155" y="415" width="120" height="65" as="geometry" />
        </mxCell>
        <mxCell id="Sauw9TE4eDmhD_2kOe0a-35" value="in an assign activity, use REGEX to extract an email address from the user input" style="rounded=0;whiteSpace=wrap;html=1;" vertex="1" parent="1">
          <mxGeometry x="320" y="417.5" width="160" height="60" as="geometry" />
        </mxCell>
        <mxCell id="Sauw9TE4eDmhD_2kOe0a-36" value="use read text file activity to read the saved email templete" style="rounded=0;whiteSpace=wrap;html=1;" vertex="1" parent="1">
          <mxGeometry x="530" y="415" width="150" height="60" as="geometry" />
        </mxCell>
        <mxCell id="Sauw9TE4eDmhD_2kOe0a-37" value="Use get secure credentials activity to get email credentials" style="rounded=0;whiteSpace=wrap;html=1;" vertex="1" parent="1">
          <mxGeometry x="710" y="412.5" width="170" height="60" as="geometry" />
        </mxCell>
        <mxCell id="Sauw9TE4eDmhD_2kOe0a-38" value="use send SMTP mail activity to send the user an email acknowledging receipt of their information" style="rounded=0;whiteSpace=wrap;html=1;" vertex="1" parent="1">
          <mxGeometry x="710" y="550" width="170" height="60" as="geometry" />
        </mxCell>
        <mxCell id="Sauw9TE4eDmhD_2kOe0a-39" value="End" style="ellipse;whiteSpace=wrap;html=1;fillColor=#dae8fc;strokeColor=#6c8ebf;" vertex="1" parent="1">
          <mxGeometry x="540" y="550" width="80" height="60" as="geometry" />
        </mxCell>
        <mxCell id="Sauw9TE4eDmhD_2kOe0a-40" value="internal app" style="text;html=1;align=center;verticalAlign=middle;resizable=0;points=[];autosize=1;strokeColor=none;fillColor=none;" vertex="1" parent="1">
          <mxGeometry x="170" y="477.5" width="90" height="30" as="geometry" />
        </mxCell>
        <mxCell id="Sauw9TE4eDmhD_2kOe0a-41" value="internal app" style="text;html=1;align=center;verticalAlign=middle;resizable=0;points=[];autosize=1;strokeColor=none;fillColor=none;" vertex="1" parent="1">
          <mxGeometry x="355" y="480" width="90" height="30" as="geometry" />
        </mxCell>
        <mxCell id="Sauw9TE4eDmhD_2kOe0a-42" value="internal app and notepad" style="text;html=1;align=center;verticalAlign=middle;resizable=0;points=[];autosize=1;strokeColor=none;fillColor=none;" vertex="1" parent="1">
          <mxGeometry x="520" y="475" width="160" height="30" as="geometry" />
        </mxCell>
        <mxCell id="Sauw9TE4eDmhD_2kOe0a-43" value="internal app and windows&amp;nbsp;&lt;br&gt;credentials manager" style="text;html=1;align=center;verticalAlign=middle;resizable=0;points=[];autosize=1;strokeColor=none;fillColor=none;" vertex="1" parent="1">
          <mxGeometry x="715" y="472.5" width="160" height="40" as="geometry" />
        </mxCell>
        <mxCell id="Sauw9TE4eDmhD_2kOe0a-44" value="Internal app and&amp;nbsp; Gmail" style="text;html=1;align=center;verticalAlign=middle;resizable=0;points=[];autosize=1;strokeColor=none;fillColor=none;" vertex="1" parent="1">
          <mxGeometry x="720" y="610" width="150" height="30" as="geometry" />
        </mxCell>
        <mxCell id="Sauw9TE4eDmhD_2kOe0a-46" value="" style="endArrow=none;dashed=1;html=1;dashPattern=1 3;strokeWidth=2;rounded=0;entryX=1;entryY=1;entryDx=0;entryDy=0;exitX=0.056;exitY=-0.062;exitDx=0;exitDy=0;exitPerimeter=0;" edge="1" parent="1" source="Sauw9TE4eDmhD_2kOe0a-43" target="Sauw9TE4eDmhD_2kOe0a-37">
          <mxGeometry width="50" height="50" relative="1" as="geometry">
            <mxPoint x="450" y="430" as="sourcePoint" />
            <mxPoint x="500" y="380" as="targetPoint" />
            <Array as="points">
              <mxPoint x="720" y="510" />
              <mxPoint x="880" y="510" />
            </Array>
          </mxGeometry>
        </mxCell>
        <mxCell id="Sauw9TE4eDmhD_2kOe0a-47" value="" style="endArrow=none;dashed=1;html=1;dashPattern=1 3;strokeWidth=2;rounded=0;entryX=0.988;entryY=0.133;entryDx=0;entryDy=0;entryPerimeter=0;exitX=0.088;exitY=0.033;exitDx=0;exitDy=0;exitPerimeter=0;" edge="1" parent="1" source="Sauw9TE4eDmhD_2kOe0a-42" target="Sauw9TE4eDmhD_2kOe0a-42">
          <mxGeometry width="50" height="50" relative="1" as="geometry">
            <mxPoint x="450" y="430" as="sourcePoint" />
            <mxPoint x="500" y="380" as="targetPoint" />
            <Array as="points">
              <mxPoint x="534" y="500" />
              <mxPoint x="678" y="500" />
            </Array>
          </mxGeometry>
        </mxCell>
        <mxCell id="Sauw9TE4eDmhD_2kOe0a-48" value="" style="endArrow=none;dashed=1;html=1;rounded=0;entryX=1;entryY=1;entryDx=0;entryDy=0;exitX=0;exitY=1;exitDx=0;exitDy=0;" edge="1" parent="1" source="Sauw9TE4eDmhD_2kOe0a-35" target="Sauw9TE4eDmhD_2kOe0a-35">
          <mxGeometry width="50" height="50" relative="1" as="geometry">
            <mxPoint x="450" y="430" as="sourcePoint" />
            <mxPoint x="500" y="380" as="targetPoint" />
            <Array as="points">
              <mxPoint x="320" y="510" />
              <mxPoint x="480" y="510" />
            </Array>
          </mxGeometry>
        </mxCell>
        <mxCell id="Sauw9TE4eDmhD_2kOe0a-49" value="" style="endArrow=none;dashed=1;html=1;rounded=0;entryX=1;entryY=1;entryDx=0;entryDy=0;exitX=0;exitY=1;exitDx=0;exitDy=0;" edge="1" parent="1" source="Sauw9TE4eDmhD_2kOe0a-34" target="Sauw9TE4eDmhD_2kOe0a-34">
          <mxGeometry width="50" height="50" relative="1" as="geometry">
            <mxPoint x="450" y="430" as="sourcePoint" />
            <mxPoint x="500" y="380" as="targetPoint" />
            <Array as="points">
              <mxPoint x="155" y="510" />
              <mxPoint x="275" y="510" />
            </Array>
          </mxGeometry>
        </mxCell>
        <mxCell id="Sauw9TE4eDmhD_2kOe0a-50" value="" style="endArrow=none;dashed=1;html=1;dashPattern=1 3;strokeWidth=2;rounded=0;entryX=1;entryY=1;entryDx=0;entryDy=0;exitX=0;exitY=1;exitDx=0;exitDy=0;" edge="1" parent="1" source="Sauw9TE4eDmhD_2kOe0a-38" target="Sauw9TE4eDmhD_2kOe0a-38">
          <mxGeometry width="50" height="50" relative="1" as="geometry">
            <mxPoint x="450" y="430" as="sourcePoint" />
            <mxPoint x="500" y="380" as="targetPoint" />
            <Array as="points">
              <mxPoint x="710" y="640" />
              <mxPoint x="880" y="640" />
            </Array>
          </mxGeometry>
        </mxCell>
        <mxCell id="Sauw9TE4eDmhD_2kOe0a-54" value="" style="endArrow=classic;html=1;rounded=0;entryX=0;entryY=0.5;entryDx=0;entryDy=0;exitX=1;exitY=0.5;exitDx=0;exitDy=0;" edge="1" parent="1" source="Sauw9TE4eDmhD_2kOe0a-33" target="Sauw9TE4eDmhD_2kOe0a-34">
          <mxGeometry width="50" height="50" relative="1" as="geometry">
            <mxPoint x="450" y="430" as="sourcePoint" />
            <mxPoint x="500" y="380" as="targetPoint" />
          </mxGeometry>
        </mxCell>
        <mxCell id="Sauw9TE4eDmhD_2kOe0a-58" value="" style="endArrow=classic;html=1;rounded=0;entryX=0;entryY=0.5;entryDx=0;entryDy=0;exitX=1;exitY=0.5;exitDx=0;exitDy=0;" edge="1" parent="1" source="Sauw9TE4eDmhD_2kOe0a-35" target="Sauw9TE4eDmhD_2kOe0a-36">
          <mxGeometry width="50" height="50" relative="1" as="geometry">
            <mxPoint x="450" y="430" as="sourcePoint" />
            <mxPoint x="500" y="380" as="targetPoint" />
          </mxGeometry>
        </mxCell>
        <mxCell id="Sauw9TE4eDmhD_2kOe0a-61" value="" style="endArrow=classic;html=1;rounded=0;entryX=0;entryY=0.5;entryDx=0;entryDy=0;" edge="1" parent="1" target="Sauw9TE4eDmhD_2kOe0a-37">
          <mxGeometry width="50" height="50" relative="1" as="geometry">
            <mxPoint x="680" y="443" as="sourcePoint" />
            <mxPoint x="500" y="380" as="targetPoint" />
          </mxGeometry>
        </mxCell>
        <mxCell id="Sauw9TE4eDmhD_2kOe0a-62" value="" style="endArrow=classic;html=1;rounded=0;entryX=0.5;entryY=0;entryDx=0;entryDy=0;" edge="1" parent="1" target="Sauw9TE4eDmhD_2kOe0a-38">
          <mxGeometry width="50" height="50" relative="1" as="geometry">
            <mxPoint x="795" y="510" as="sourcePoint" />
            <mxPoint x="500" y="380" as="targetPoint" />
          </mxGeometry>
        </mxCell>
        <mxCell id="Sauw9TE4eDmhD_2kOe0a-63" value="" style="endArrow=classic;html=1;rounded=0;entryX=0;entryY=0.5;entryDx=0;entryDy=0;exitX=1;exitY=0.5;exitDx=0;exitDy=0;" edge="1" parent="1" source="Sauw9TE4eDmhD_2kOe0a-34" target="Sauw9TE4eDmhD_2kOe0a-35">
          <mxGeometry width="50" height="50" relative="1" as="geometry">
            <mxPoint x="450" y="430" as="sourcePoint" />
            <mxPoint x="500" y="380" as="targetPoint" />
          </mxGeometry>
        </mxCell>
        <mxCell id="Sauw9TE4eDmhD_2kOe0a-64" value="" style="endArrow=classic;html=1;rounded=0;entryX=1;entryY=0.5;entryDx=0;entryDy=0;exitX=0;exitY=0.5;exitDx=0;exitDy=0;" edge="1" parent="1" source="Sauw9TE4eDmhD_2kOe0a-38" target="Sauw9TE4eDmhD_2kOe0a-39">
          <mxGeometry width="50" height="50" relative="1" as="geometry">
            <mxPoint x="450" y="430" as="sourcePoint" />
            <mxPoint x="500" y="380" as="targetPoint" />
          </mxGeometry>
        </mxCell>
        <mxCell id="Sauw9TE4eDmhD_2kOe0a-65" value="&lt;font style=&quot;font-size: 13px;&quot;&gt;&lt;b&gt;&lt;u&gt;Extraction&amp;nbsp; using string manipulation&lt;/u&gt;&lt;/b&gt;&lt;/font&gt;" style="text;html=1;align=center;verticalAlign=middle;resizable=0;points=[];autosize=1;strokeColor=none;fillColor=none;" vertex="1" parent="1">
          <mxGeometry x="35" y="370" width="250" height="30" as="geometry" />
        </mxCell>
      </root>
    </mxGraphModel>
  </diagram>
</mxfile>
